<svg width="308" height="45" viewBox="0 0 308 45" fill="none" xmlns="http://www.w3.org/2000/svg">
<path d="M11.5903 29.5835C11.5903 30.2134 11.6636 30.7041 11.8101 31.0557C11.9565 31.4072 12.2422 31.6855 12.667 31.8906C13.0918 32.0811 13.7217 32.2422 14.5566 32.374V34H0.0327148V32.374C0.940918 32.2129 1.62207 32.0371 2.07617 31.8467C2.54492 31.6416 2.85254 31.356 2.99902 30.9897C3.14551 30.6089 3.21875 30.0962 3.21875 29.4517V6.81982C3.21875 6.16064 3.14551 5.64795 2.99902 5.28174C2.85254 4.91553 2.54492 4.62988 2.07617 4.4248C1.62207 4.21973 0.940918 4.04395 0.0327148 3.89746V2.27148H14.5566V3.91943C13.7217 4.05127 13.0918 4.2124 12.667 4.40283C12.2422 4.59326 11.9565 4.87158 11.8101 5.23779C11.6636 5.58936 11.5903 6.07275 11.5903 6.68799V29.5835ZM32.1128 29.4517C32.1128 30.1108 32.186 30.6309 32.3325 31.0117C32.479 31.3779 32.7793 31.6636 33.2334 31.8687C33.7021 32.0591 34.3906 32.2275 35.2988 32.374V34H20.7749V32.374C21.6245 32.2422 22.2617 32.0811 22.6865 31.8906C23.1113 31.7002 23.3896 31.4292 23.5215 31.0776C23.668 30.7114 23.7412 30.2134 23.7412 29.5835V6.68799C23.7412 6.05811 23.668 5.56738 23.5215 5.21582C23.3896 4.84961 23.1113 4.57129 22.6865 4.38086C22.2617 4.19043 21.6245 4.0293 20.7749 3.89746V2.27148H35.2988V3.89746C34.3906 4.04395 33.7021 4.21973 33.2334 4.4248C32.7793 4.61523 32.479 4.90088 32.3325 5.28174C32.186 5.64795 32.1128 6.16064 32.1128 6.81982V29.4517ZM7.41553 18.8169V16.7734H27.916V18.8169H7.41553ZM37.8257 23.0137C37.8257 20.6992 38.3237 18.6631 39.3198 16.9053C40.3159 15.1328 41.7002 13.7632 43.4727 12.7964C45.2598 11.8149 47.3252 11.3242 49.6689 11.3242C51.793 11.3242 53.6094 11.7197 55.1182 12.5107C56.627 13.3018 57.7842 14.415 58.5898 15.8506C59.3955 17.2861 59.7983 18.9634 59.7983 20.8823C59.7983 21.6147 59.7617 22.208 59.6885 22.6621H43.1431V20.7944L53.4922 20.7285L52.9648 21.2559C52.9941 21.0361 53.0088 20.8018 53.0088 20.5527C53.0234 20.2891 53.0308 19.9595 53.0308 19.564C53.0308 18.2749 52.9062 17.1763 52.6572 16.2681C52.4082 15.3599 52.0347 14.6641 51.5366 14.1807C51.0386 13.6973 50.4087 13.4556 49.647 13.4556C48.3872 13.4556 47.3984 14.0562 46.6807 15.2573C45.9629 16.4585 45.604 18.2017 45.604 20.4868C45.604 22.7134 45.9629 24.603 46.6807 26.1558C47.3984 27.6938 48.4019 28.8657 49.6909 29.6714C50.98 30.4771 52.4814 30.8799 54.1953 30.8799C55.2061 30.8799 56.1655 30.7188 57.0737 30.3965C57.9966 30.0596 58.7437 29.6201 59.3149 29.0781L59.3369 30.7041C58.4727 31.8906 57.2056 32.8135 55.5356 33.4727C53.8804 34.1318 52.0054 34.4614 49.9106 34.4614C47.6694 34.4614 45.6333 34.0073 43.8022 33.0991C41.9858 32.1909 40.5356 30.8799 39.4517 29.166C38.3677 27.4521 37.8257 25.4014 37.8257 23.0137ZM64.1709 17.0811C63.79 16.1729 63.4531 15.4771 63.1602 14.9937C62.8672 14.5103 62.5303 14.1587 62.1494 13.939C61.7832 13.7192 61.2925 13.5435 60.6772 13.4116V11.7856H74.4102V13.4116C73.0771 13.5581 72.3008 13.873 72.0811 14.3564C71.8613 14.8252 71.9932 15.77 72.4766 17.1909L76.2119 27.8477H75.3989L79.2002 17.2129C79.5371 16.2607 79.7129 15.5283 79.7275 15.0156C79.7422 14.5029 79.5591 14.1367 79.1782 13.917C78.812 13.6826 78.1968 13.5142 77.3325 13.4116V11.7856H85.5063V13.4116C84.8618 13.5435 84.3418 13.7192 83.9463 13.939C83.5508 14.1587 83.1919 14.5396 82.8696 15.0815C82.5474 15.6089 82.1665 16.3999 81.7271 17.4546L77.4644 27.8477L74.6079 34.6592L71.2021 44.1074H65.1157V43.9756C65.7896 43.2139 66.522 42.313 67.313 41.2729C68.1187 40.2476 68.9097 39.1929 69.686 38.1089C70.4624 37.0249 71.1362 36.0215 71.7075 35.0986L64.1709 17.0811ZM83.7046 39.7568L83.3091 38.2627C84.3931 38.0723 85.3232 37.6255 86.0996 36.9224C86.8906 36.2339 87.2861 35.377 87.2861 34.3516C87.2861 33.4727 86.9346 32.7549 86.2314 32.1982C85.5283 31.6416 84.6201 31.3486 83.5068 31.3193C83.5068 30.3965 83.6753 29.5396 84.0122 28.7485C84.3491 27.9429 84.8325 27.291 85.4624 26.793C86.1069 26.2949 86.8906 26.0459 87.8135 26.0459C89.0732 26.0459 90.106 26.5439 90.9116 27.54C91.7319 28.5215 92.1421 29.7812 92.1421 31.3193C92.1421 32.8428 91.7319 34.2051 90.9116 35.4062C90.106 36.6221 89.0586 37.6035 87.7695 38.3506C86.4805 39.0977 85.1255 39.5664 83.7046 39.7568ZM117.235 29.4517C117.235 30.0962 117.308 30.6089 117.455 30.9897C117.601 31.356 117.901 31.6416 118.355 31.8467C118.824 32.0371 119.513 32.2129 120.421 32.374V34H105.677V32.374C106.585 32.2129 107.267 32.0371 107.721 31.8467C108.189 31.6416 108.497 31.356 108.644 30.9897C108.805 30.6089 108.885 30.0962 108.885 29.4517V6.81982C108.885 6.16064 108.805 5.64795 108.644 5.28174C108.497 4.91553 108.189 4.62988 107.721 4.4248C107.267 4.21973 106.585 4.04395 105.677 3.89746V2.27148H120.421V3.89746C119.513 4.04395 118.824 4.21973 118.355 4.4248C117.901 4.62988 117.601 4.91553 117.455 5.28174C117.308 5.64795 117.235 6.16064 117.235 6.81982V29.4517ZM123.607 15.499L123.211 14.0049C124.295 13.8145 125.226 13.375 126.002 12.6865C126.793 11.9834 127.188 11.1191 127.188 10.0938C127.188 9.21484 126.837 8.49707 126.134 7.94043C125.431 7.38379 124.522 7.09082 123.409 7.06152C123.409 6.13867 123.578 5.28174 123.915 4.49072C124.251 3.68506 124.735 3.0332 125.365 2.53516C126.009 2.03711 126.793 1.78809 127.716 1.78809C128.976 1.78809 130.008 2.28613 130.814 3.28223C131.634 4.26367 132.044 5.52344 132.044 7.06152C132.044 8.58496 131.634 9.95459 130.814 11.1704C130.008 12.3716 128.961 13.3457 127.672 14.0928C126.383 14.8398 125.028 15.3086 123.607 15.499ZM144.964 11.4561V15.9385L145.052 15.9604V30.1548C145.052 30.9165 145.184 31.4365 145.448 31.7148C145.711 31.9785 146.341 32.1982 147.337 32.374V34H134.571V32.374C135.729 32.1982 136.468 31.9565 136.791 31.6489C137.113 31.3413 137.274 30.7993 137.274 30.0229V16.7954C137.274 16.0923 137.186 15.6089 137.01 15.3452C136.849 15.0815 136.461 14.8472 135.846 14.6421L134.571 14.2686V12.7524L144.964 11.4561ZM152.699 11.3022C154.94 11.3022 156.712 11.8882 158.016 13.0601C159.334 14.2173 159.994 15.9458 159.994 18.2456V30.1548C159.994 30.9165 160.125 31.4365 160.389 31.7148C160.653 31.9785 161.283 32.1982 162.279 32.374V34H149.952V32.374C150.934 32.1982 151.556 31.9785 151.82 31.7148C152.083 31.4365 152.215 30.9165 152.215 30.1548V19.1245C152.215 17.7183 151.893 16.6636 151.249 15.9604C150.619 15.2427 149.74 14.8838 148.612 14.8838C147.718 14.8838 146.949 15.0815 146.305 15.4771C145.675 15.8579 145.177 16.4146 144.811 17.147V15.7627C145.396 14.415 146.378 13.3384 147.755 12.5327C149.146 11.7124 150.794 11.3022 152.699 11.3022ZM167.42 11.3022C169.691 11.3022 171.507 11.9175 172.87 13.1479C174.247 14.3784 174.935 16.1729 174.935 18.5312V30.0229C174.935 30.7993 175.096 31.3413 175.418 31.6489C175.755 31.9565 176.495 32.1982 177.638 32.374V34H164.894V32.374C165.875 32.1982 166.498 31.9785 166.761 31.7148C167.025 31.4365 167.157 30.9165 167.157 30.1548V19.1245C167.157 17.7183 166.827 16.6636 166.168 15.9604C165.523 15.2427 164.63 14.8838 163.487 14.8838C162.55 14.8838 161.744 15.0815 161.07 15.4771C160.396 15.8726 159.884 16.4585 159.532 17.2349V15.7847C160.118 14.3931 161.1 13.3018 162.477 12.5107C163.868 11.7051 165.516 11.3022 167.42 11.3022ZM190.646 18.1577C190.646 15.5356 191.1 13.2065 192.008 11.1704C192.916 9.11963 194.176 7.39111 195.787 5.98486C197.413 4.57861 199.303 3.50928 201.456 2.77686C203.624 2.04443 205.968 1.67822 208.487 1.67822C210.758 1.67822 212.772 1.86865 214.53 2.24951C216.302 2.63037 217.672 3.14307 218.639 3.7876L218.836 12.4229H217.298C217.02 11.1338 216.632 9.96924 216.134 8.9292C215.65 7.88916 215.057 6.99561 214.354 6.24854C213.666 5.50146 212.875 4.93018 211.981 4.53467C211.102 4.13916 210.128 3.94141 209.059 3.94141C207.14 3.94141 205.492 4.52734 204.115 5.69922C202.752 6.85645 201.705 8.48242 200.973 10.5771C200.255 12.6572 199.896 15.0889 199.896 17.8721C199.896 19.8496 200.101 21.7173 200.511 23.4751C200.936 25.2183 201.544 26.7563 202.335 28.0894C203.126 29.4077 204.085 30.4478 205.213 31.2095C206.356 31.9565 207.645 32.3301 209.081 32.3301C210.106 32.3301 211.058 32.1396 211.937 31.7588C212.816 31.3779 213.607 30.814 214.31 30.0669C215.013 29.3198 215.621 28.4043 216.134 27.3203C216.661 26.2363 217.079 24.9839 217.386 23.563H218.946L218.727 32.2642C218.097 32.7036 217.254 33.0991 216.2 33.4507C215.145 33.8022 213.958 34.0806 212.64 34.2856C211.336 34.4907 209.967 34.5933 208.531 34.5933C206.012 34.5933 203.668 34.2197 201.5 33.4727C199.347 32.7256 197.457 31.6489 195.831 30.2427C194.205 28.8218 192.931 27.0933 192.008 25.0571C191.1 23.021 190.646 20.7212 190.646 18.1577ZM232.196 0.975098V30.0229C232.196 30.7993 232.357 31.3413 232.679 31.6489C233.001 31.9565 233.741 32.1982 234.898 32.374V34H221.715V32.374C222.872 32.1982 223.612 31.9565 223.934 31.6489C224.271 31.3413 224.439 30.7993 224.439 30.0229V6.33643C224.439 5.61865 224.352 5.12793 224.176 4.86426C224.015 4.60059 223.626 4.37354 223.011 4.18311L221.715 3.80957V2.27148L232.196 0.975098ZM247.049 11.4561V30.0229C247.049 30.7993 247.21 31.3413 247.533 31.6489C247.855 31.9565 248.595 32.1982 249.752 32.374V34H236.568V32.374C237.726 32.1982 238.465 31.9565 238.788 31.6489C239.11 31.3413 239.271 30.7993 239.271 30.0229V16.7954C239.271 16.0923 239.19 15.6089 239.029 15.3452C238.868 15.0815 238.48 14.8472 237.865 14.6421L236.568 14.2686V12.7524L247.049 11.4561ZM242.699 8.55566C241.585 8.55566 240.633 8.19678 239.842 7.479C239.066 6.76123 238.678 5.85303 238.678 4.75439C238.678 3.67041 239.066 2.76953 239.842 2.05176C240.633 1.33398 241.585 0.975098 242.699 0.975098C243.812 0.975098 244.757 1.33398 245.533 2.05176C246.324 2.76953 246.72 3.67041 246.72 4.75439C246.72 5.85303 246.324 6.76123 245.533 7.479C244.757 8.19678 243.812 8.55566 242.699 8.55566ZM261.749 11.4561V15.499C262.32 14.2832 263.272 13.2798 264.605 12.4888C265.953 11.6978 267.601 11.3022 269.549 11.3022C271.849 11.3022 273.702 11.9102 275.108 13.126C276.529 14.3418 277.24 16.1362 277.24 18.5093V30.0229C277.24 30.7993 277.394 31.3413 277.701 31.6489C278.023 31.9419 278.771 32.1836 279.942 32.374V34H267.176V32.374C268.158 32.1982 268.78 31.9785 269.044 31.7148C269.322 31.4365 269.461 30.9165 269.461 30.1548V19.1025C269.461 17.7109 269.117 16.6636 268.429 15.9604C267.755 15.2427 266.803 14.8838 265.572 14.8838C264.679 14.8838 263.902 15.0669 263.243 15.4331C262.599 15.7847 262.13 16.2388 261.837 16.7954V30.1548C261.837 30.9165 261.969 31.4365 262.232 31.7148C262.496 31.9785 263.126 32.1982 264.122 32.374V34H251.356V32.374C252.513 32.1982 253.253 31.9565 253.575 31.6489C253.897 31.3413 254.059 30.7993 254.059 30.0229V16.7954C254.059 16.0923 253.971 15.6089 253.795 15.3452C253.634 15.0815 253.246 14.8472 252.63 14.6421L251.356 14.2686V12.7524L261.749 11.4561ZM283.854 27.1885V14.3564H281.283V12.9282L290.292 6.33643H291.544V12.0493L297.191 11.7856V14.3564L291.544 14.0708V26.8149C291.544 28.3823 291.852 29.4883 292.467 30.1328C293.097 30.7773 293.917 31.0996 294.928 31.0996C295.426 31.0996 295.895 31.0337 296.334 30.9019C296.788 30.7554 297.169 30.5649 297.477 30.3306V31.9785C296.949 32.6377 296.085 33.2163 294.884 33.7144C293.697 34.2124 292.364 34.4614 290.885 34.4614C289.566 34.4614 288.38 34.2197 287.325 33.7363C286.271 33.2383 285.428 32.4546 284.798 31.3853C284.168 30.3159 283.854 28.917 283.854 27.1885ZM303.783 34.4614C303.021 34.4614 302.318 34.271 301.673 33.8901C301.029 33.5093 300.516 33.0039 300.135 32.374C299.754 31.7295 299.564 31.0264 299.564 30.2646C299.564 29.4883 299.754 28.7852 300.135 28.1553C300.516 27.5107 301.029 26.998 301.673 26.6172C302.318 26.2363 303.021 26.0459 303.783 26.0459C304.574 26.0459 305.284 26.2363 305.914 26.6172C306.544 26.998 307.049 27.5107 307.43 28.1553C307.811 28.7852 308.001 29.4883 308.001 30.2646C308.001 31.0264 307.811 31.7295 307.43 32.374C307.049 33.0039 306.544 33.5093 305.914 33.8901C305.284 34.271 304.574 34.4614 303.783 34.4614Z" fill="white"/>
</svg>
