<svg width="223" height="32" viewBox="0 0 223 32" fill="none" xmlns="http://www.w3.org/2000/svg">
<path d="M9.0625 20.7344C9.0625 21.1719 9.11458 21.5156 9.21875 21.7656C9.32292 22.0156 9.52604 22.2135 9.82812 22.3594C10.1406 22.4948 10.6094 22.6042 11.2344 22.6875V24H0.765625V22.6875C1.43229 22.5833 1.93229 22.4635 2.26562 22.3281C2.60938 22.1823 2.83333 21.9844 2.9375 21.7344C3.05208 21.474 3.10938 21.1094 3.10938 20.6406V4.79688C3.10938 4.32812 3.05208 3.96354 2.9375 3.70312C2.83333 3.44271 2.60938 3.24479 2.26562 3.10938C1.93229 2.96354 1.43229 2.84375 0.765625 2.75V1.4375H11.2344V2.75C10.6094 2.84375 10.1406 2.95833 9.82812 3.09375C9.52604 3.22917 9.32292 3.42188 9.21875 3.67188C9.11458 3.92188 9.0625 4.26562 9.0625 4.70312V20.7344ZM23.6875 20.6406C23.6875 21.1094 23.7396 21.4792 23.8438 21.75C23.9583 22.0104 24.1823 22.2083 24.5156 22.3438C24.849 22.4792 25.349 22.5938 26.0156 22.6875V24H15.5469V22.6875C16.1823 22.6042 16.651 22.4948 16.9531 22.3594C17.2656 22.224 17.474 22.0312 17.5781 21.7812C17.6823 21.5312 17.7344 21.1823 17.7344 20.7344V4.70312C17.7344 4.25521 17.6823 3.90625 17.5781 3.65625C17.474 3.40625 17.2656 3.21354 16.9531 3.07812C16.651 2.94271 16.1823 2.83333 15.5469 2.75V1.4375H26.0156V2.75C25.349 2.84375 24.849 2.95833 24.5156 3.09375C24.1823 3.22917 23.9583 3.43229 23.8438 3.70312C23.7396 3.96354 23.6875 4.32812 23.6875 4.79688V20.6406ZM6.09375 13.2812V11.6719H20.6875V13.2812H6.09375ZM27.8594 16.1719C27.8594 14.4948 28.2188 13.026 28.9375 11.7656C29.6562 10.5052 30.651 9.52604 31.9219 8.82812C33.1927 8.13021 34.6615 7.78125 36.3281 7.78125C37.8594 7.78125 39.1667 8.06771 40.25 8.64062C41.3333 9.20312 42.1615 10 42.7344 11.0312C43.3177 12.0625 43.6094 13.276 43.6094 14.6719C43.6094 15.2135 43.5833 15.651 43.5312 15.9844H31.4844V14.5L39.125 14.4531L38.7344 14.875C38.7552 14.7292 38.7656 14.5729 38.7656 14.4062C38.776 14.2396 38.7812 14.0208 38.7812 13.75C38.7812 12.8542 38.6875 12.0885 38.5 11.4531C38.3229 10.8177 38.0521 10.3333 37.6875 10C37.3229 9.66667 36.8646 9.5 36.3125 9.5C35.4167 9.5 34.7083 9.92188 34.1875 10.7656C33.6667 11.599 33.4062 12.8229 33.4062 14.4375C33.4062 15.9792 33.6615 17.2917 34.1719 18.375C34.6823 19.4479 35.401 20.2708 36.3281 20.8438C37.2552 21.4062 38.3333 21.6875 39.5625 21.6875C40.2708 21.6875 40.9531 21.5729 41.6094 21.3438C42.276 21.1042 42.8229 20.7969 43.25 20.4219V21.7188C42.6146 22.5417 41.7031 23.1875 40.5156 23.6562C39.3385 24.1146 38.0052 24.3438 36.5156 24.3438C34.9115 24.3438 33.4531 24.0208 32.1406 23.375C30.8385 22.7292 29.7969 21.7969 29.0156 20.5781C28.2448 19.349 27.8594 17.8802 27.8594 16.1719ZM46.8281 12.0469C46.5573 11.3906 46.3177 10.8906 46.1094 10.5469C45.901 10.2031 45.6615 9.95312 45.3906 9.79688C45.1198 9.64062 44.7552 9.51562 44.2969 9.42188V8.10938H54.1094V9.42188C53.151 9.52604 52.5885 9.74479 52.4219 10.0781C52.2656 10.401 52.3542 11.0573 52.6875 12.0469L55.375 19.7031H54.7344L57.5 12.0625C57.7396 11.3958 57.8646 10.8854 57.875 10.5312C57.8854 10.1771 57.75 9.92188 57.4688 9.76562C57.1979 9.59896 56.75 9.48438 56.125 9.42188V8.10938H62.1406V9.42188C61.6719 9.51562 61.2969 9.64062 61.0156 9.79688C60.7344 9.94271 60.4792 10.2031 60.25 10.5781C60.0208 10.9427 59.7552 11.4948 59.4531 12.2344L56.3906 19.7031L54.4375 24.3906L51.9688 31.1875H47.4844V31.0938C47.9531 30.5312 48.4635 29.8802 49.0156 29.1406C49.5781 28.401 50.1302 27.6458 50.6719 26.875C51.2135 26.1042 51.6927 25.3906 52.1094 24.7344L46.8281 12.0469ZM60.9219 28.2031L60.6094 27.0156C61.401 26.8802 62.0781 26.5625 62.6406 26.0625C63.2031 25.5625 63.4844 24.9531 63.4844 24.2344C63.4844 23.599 63.2344 23.0885 62.7344 22.7031C62.2344 22.3073 61.5833 22.099 60.7812 22.0781C60.7812 21.4219 60.901 20.8073 61.1406 20.2344C61.3802 19.651 61.7292 19.1823 62.1875 18.8281C62.6562 18.4635 63.224 18.2812 63.8906 18.2812C64.7969 18.2812 65.5417 18.6406 66.125 19.3594C66.7188 20.0677 67.0156 20.9792 67.0156 22.0938C67.0156 23.2083 66.7188 24.1979 66.125 25.0625C65.5417 25.9375 64.7865 26.6458 63.8594 27.1875C62.9323 27.7292 61.9531 28.0677 60.9219 28.2031ZM85.1406 20.6406C85.1406 21.1094 85.1927 21.474 85.2969 21.7344C85.4115 21.9948 85.6354 22.1927 85.9688 22.3281C86.3125 22.4635 86.8177 22.5833 87.4844 22.6875V24H76.8438V22.6875C77.5208 22.5833 78.026 22.4635 78.3594 22.3281C78.6927 22.1927 78.9115 21.9948 79.0156 21.7344C79.1302 21.474 79.1875 21.1094 79.1875 20.6406V4.79688C79.1875 4.32812 79.1302 3.96354 79.0156 3.70312C78.9115 3.44271 78.6927 3.24479 78.3594 3.10938C78.026 2.96354 77.5208 2.84375 76.8438 2.75V1.4375H87.4844V2.75C86.8177 2.84375 86.3125 2.96354 85.9688 3.10938C85.6354 3.24479 85.4115 3.44271 85.2969 3.70312C85.1927 3.96354 85.1406 4.32812 85.1406 4.79688V20.6406ZM89.8281 11L89.5156 9.8125C90.3073 9.67708 90.9844 9.35938 91.5469 8.85938C92.1094 8.35938 92.3906 7.75 92.3906 7.03125C92.3906 6.39583 92.1406 5.88542 91.6406 5.5C91.1406 5.10417 90.4896 4.89583 89.6875 4.875C89.6875 4.21875 89.8073 3.60417 90.0469 3.03125C90.2865 2.44792 90.6354 1.97917 91.0938 1.625C91.5625 1.26042 92.1302 1.07812 92.7969 1.07812C93.7031 1.07812 94.4479 1.4375 95.0312 2.15625C95.625 2.86458 95.9219 3.77604 95.9219 4.89062C95.9219 6.00521 95.625 7 95.0312 7.875C94.4479 8.73958 93.6927 9.44271 92.7656 9.98438C91.8385 10.526 90.8594 10.8646 89.8281 11ZM105.25 7.875V11.0938H105.312V21.1562C105.312 21.6875 105.406 22.0521 105.594 22.25C105.792 22.4375 106.25 22.5833 106.969 22.6875V24H97.7969V22.6875C98.6406 22.5729 99.1771 22.4115 99.4062 22.2031C99.6458 21.9844 99.7656 21.6042 99.7656 21.0625V11.8125C99.7656 11.3229 99.7031 10.9844 99.5781 10.7969C99.4635 10.6094 99.1875 10.4479 98.75 10.3125L97.7969 10.0312V8.8125L105.25 7.875ZM110.797 7.78125C112.391 7.78125 113.656 8.19792 114.594 9.03125C115.542 9.85417 116.016 11.0885 116.016 12.7344V21.1562C116.016 21.6875 116.109 22.0469 116.297 22.2344C116.495 22.4219 116.953 22.5729 117.672 22.6875V24H108.812V22.6875C109.531 22.5729 109.984 22.4219 110.172 22.2344C110.37 22.0469 110.469 21.6875 110.469 21.1562V13.4688C110.469 12.4688 110.234 11.7135 109.766 11.2031C109.307 10.6927 108.677 10.4375 107.875 10.4375C107.229 10.4375 106.672 10.5781 106.203 10.8594C105.745 11.1302 105.385 11.5312 105.125 12.0625V10.9375C105.552 9.98958 106.26 9.22917 107.25 8.65625C108.24 8.07292 109.422 7.78125 110.797 7.78125ZM121.312 7.78125C122.948 7.78125 124.255 8.22396 125.234 9.10938C126.214 9.99479 126.703 11.2812 126.703 12.9688V21.0625C126.703 21.6042 126.823 21.9844 127.062 22.2031C127.302 22.4115 127.844 22.5729 128.688 22.6875V24H119.516V22.6875C120.234 22.5729 120.688 22.4219 120.875 22.2344C121.073 22.0469 121.172 21.6875 121.172 21.1562V13.4688C121.172 12.4688 120.932 11.7135 120.453 11.2031C119.984 10.6927 119.339 10.4375 118.516 10.4375C117.839 10.4375 117.255 10.5781 116.766 10.8594C116.286 11.1302 115.922 11.5469 115.672 12.1094V10.9688C116.089 9.97917 116.792 9.20312 117.781 8.64062C118.771 8.06771 119.948 7.78125 121.312 7.78125ZM138.125 12.75C138.125 10.8958 138.443 9.24479 139.078 7.79688C139.714 6.33854 140.604 5.10417 141.75 4.09375C142.896 3.08333 144.234 2.31771 145.766 1.79688C147.307 1.26562 148.979 1 150.781 1C152.406 1 153.854 1.14062 155.125 1.42188C156.406 1.69271 157.396 2.0625 158.094 2.53125L158.234 8.60938H157C156.802 7.69271 156.531 6.88021 156.188 6.17188C155.844 5.45312 155.427 4.84375 154.938 4.34375C154.448 3.83333 153.891 3.44792 153.266 3.1875C152.651 2.92708 151.974 2.79688 151.234 2.79688C149.859 2.79688 148.682 3.20312 147.703 4.01562C146.734 4.82812 145.99 5.96354 145.469 7.42188C144.958 8.88021 144.703 10.5781 144.703 12.5156C144.703 13.9219 144.854 15.2396 145.156 16.4688C145.458 17.6875 145.891 18.7604 146.453 19.6875C147.016 20.6146 147.698 21.3385 148.5 21.8594C149.312 22.3802 150.229 22.6406 151.25 22.6406C151.969 22.6406 152.635 22.5156 153.25 22.2656C153.865 22.0052 154.417 21.625 154.906 21.125C155.406 20.625 155.833 20 156.188 19.25C156.552 18.4896 156.844 17.6146 157.062 16.625H158.312L158.156 22.7344C157.698 23.0573 157.083 23.349 156.312 23.6094C155.552 23.8594 154.698 24.0573 153.75 24.2031C152.802 24.3594 151.818 24.4375 150.797 24.4375C149.026 24.4375 147.37 24.1719 145.828 23.6406C144.297 23.1094 142.953 22.3385 141.797 21.3281C140.641 20.3177 139.74 19.0938 139.094 17.6562C138.448 16.2083 138.125 14.5729 138.125 12.75ZM167.875 0.515625V21.0625C167.875 21.6042 167.99 21.9844 168.219 22.2031C168.458 22.4115 169.005 22.5729 169.859 22.6875V24H160.359V22.6875C161.214 22.5729 161.755 22.4115 161.984 22.2031C162.224 21.9844 162.344 21.6042 162.344 21.0625V4.45312C162.344 3.94271 162.281 3.59896 162.156 3.42188C162.042 3.23438 161.766 3.07292 161.328 2.9375L160.359 2.65625V1.4375L167.875 0.515625ZM178.625 7.875V21.0625C178.625 21.6042 178.74 21.9844 178.969 22.2031C179.208 22.4115 179.755 22.5729 180.609 22.6875V24H171.109V22.6875C171.953 22.5729 172.495 22.4115 172.734 22.2031C172.974 21.9844 173.094 21.6042 173.094 21.0625V11.8125C173.094 11.3229 173.031 10.9844 172.906 10.7969C172.792 10.6094 172.516 10.4479 172.078 10.3125L171.109 10.0312V8.8125L178.625 7.875ZM175.516 5.76562C174.714 5.76562 174.031 5.51042 173.469 5C172.906 4.47917 172.625 3.82292 172.625 3.03125C172.625 2.23958 172.906 1.58854 173.469 1.07812C174.031 0.567708 174.714 0.3125 175.516 0.3125C176.318 0.3125 177 0.567708 177.562 1.07812C178.125 1.58854 178.406 2.23958 178.406 3.03125C178.406 3.82292 178.125 4.47917 177.562 5C177 5.51042 176.318 5.76562 175.516 5.76562ZM189.266 7.875V10.75C189.672 9.89583 190.354 9.1875 191.312 8.625C192.271 8.0625 193.453 7.78125 194.859 7.78125C196.505 7.78125 197.833 8.21875 198.844 9.09375C199.854 9.96875 200.359 11.25 200.359 12.9375V21.0625C200.359 21.6042 200.474 21.9792 200.703 22.1875C200.932 22.3958 201.474 22.5625 202.328 22.6875V24H193.156V22.6875C193.865 22.5729 194.318 22.4219 194.516 22.2344C194.714 22.0469 194.812 21.6875 194.812 21.1562V13.4375C194.812 12.4479 194.562 11.7031 194.062 11.2031C193.573 10.6927 192.891 10.4375 192.016 10.4375C191.38 10.4375 190.823 10.5625 190.344 10.8125C189.875 11.0625 189.536 11.3802 189.328 11.7656V21.1562C189.328 21.6875 189.422 22.0469 189.609 22.2344C189.807 22.4219 190.266 22.5729 190.984 22.6875V24H181.812V22.6875C182.656 22.5729 183.193 22.4115 183.422 22.2031C183.661 21.9844 183.781 21.6042 183.781 21.0625V11.8125C183.781 11.3229 183.719 10.9844 183.594 10.7969C183.479 10.6094 183.203 10.4479 182.766 10.3125L181.812 10.0312V8.8125L189.266 7.875ZM205.188 19.0781V10.0781H203.312V8.9375L209.656 4.28125H210.672V8.29688L214.812 8.10938V10.0781L210.672 9.90625V18.7031C210.672 19.849 210.901 20.6615 211.359 21.1406C211.818 21.6094 212.417 21.8438 213.156 21.8438C213.521 21.8438 213.865 21.7969 214.188 21.7031C214.521 21.599 214.797 21.4635 215.016 21.2969V22.6094C214.63 23.0781 214.005 23.4844 213.141 23.8281C212.276 24.1719 211.318 24.3438 210.266 24.3438C209.318 24.3438 208.464 24.1667 207.703 23.8125C206.943 23.4583 206.333 22.8958 205.875 22.125C205.417 21.3542 205.188 20.3385 205.188 19.0781ZM219.641 24.3438C219.089 24.3438 218.583 24.2083 218.125 23.9375C217.667 23.6562 217.297 23.2865 217.016 22.8281C216.745 22.3698 216.609 21.8646 216.609 21.3125C216.609 20.7604 216.745 20.2552 217.016 19.7969C217.297 19.3385 217.667 18.974 218.125 18.7031C218.583 18.4219 219.089 18.2812 219.641 18.2812C220.203 18.2812 220.714 18.4219 221.172 18.7031C221.63 18.974 221.995 19.3385 222.266 19.7969C222.547 20.2552 222.688 20.7604 222.688 21.3125C222.688 21.8646 222.547 22.3698 222.266 22.8281C221.995 23.2865 221.63 23.6562 221.172 23.9375C220.714 24.2083 220.203 24.3438 219.641 24.3438Z" fill="white"/>
</svg>
