<svg width="231" height="27" viewBox="0 0 231 27" fill="none" xmlns="http://www.w3.org/2000/svg">
<path d="M0.918457 13.6953C0.918457 11.6559 1.26595 9.8444 1.96094 8.26074C2.66732 6.66569 3.64714 5.32129 4.90039 4.22754C6.16504 3.1224 7.63477 2.28499 9.30957 1.71533C10.9958 1.13428 12.8187 0.84375 14.7783 0.84375C16.5557 0.84375 18.1393 0.997559 19.5293 1.30518C20.9193 1.6014 21.9902 2.00586 22.7422 2.51855L22.9131 9.18359H21.5972C21.3807 8.18099 21.0788 7.28662 20.6914 6.50049C20.3154 5.70296 19.8597 5.03076 19.3242 4.48389C18.7887 3.92562 18.1792 3.49837 17.4956 3.20215C16.8234 2.90592 16.0771 2.75781 15.2568 2.75781C13.7529 2.75781 12.4655 3.20785 11.3945 4.10791C10.335 4.99658 9.52035 6.24414 8.95068 7.85059C8.39242 9.44564 8.11328 11.3084 8.11328 13.439C8.11328 14.9771 8.27848 16.4183 8.60889 17.7627C8.93929 19.1071 9.41211 20.292 10.0273 21.3174C10.654 22.3314 11.4059 23.1289 12.2832 23.71C13.1605 24.2796 14.1574 24.5645 15.2739 24.5645C16.0715 24.5645 16.8063 24.422 17.4785 24.1372C18.1507 23.8524 18.7546 23.4308 19.29 22.8726C19.8369 22.3143 20.3097 21.625 20.7085 20.8047C21.1073 19.973 21.4263 19.0103 21.6655 17.9165H22.9814L22.8276 24.6157C22.3263 24.9689 21.6598 25.2879 20.8281 25.5728C19.9964 25.8462 19.0622 26.0627 18.0254 26.2222C16.9886 26.3931 15.9119 26.4785 14.7954 26.4785C12.8586 26.4785 11.047 26.188 9.36084 25.6069C7.68604 25.0259 6.21631 24.1828 4.95166 23.0776C3.68701 21.9725 2.6958 20.6338 1.97803 19.0615C1.27165 17.4779 0.918457 15.6891 0.918457 13.6953ZM33.4062 0.313965V22.8042C33.4062 23.408 33.5316 23.8296 33.7822 24.0688C34.0443 24.2967 34.6367 24.479 35.5596 24.6157V26H25.2031V24.6157C26.126 24.479 26.7127 24.2967 26.9634 24.0688C27.2254 23.8296 27.3564 23.408 27.3564 22.8042V4.58643C27.3564 4.02816 27.2881 3.65218 27.1514 3.4585C27.026 3.25342 26.7241 3.07113 26.2456 2.91162L25.2031 2.62109V1.32227L33.4062 0.313965ZM45.1299 8.39746V22.8042C45.1299 23.408 45.2552 23.8296 45.5059 24.0688C45.7679 24.2967 46.3604 24.479 47.2832 24.6157V26H36.9268V24.6157C37.8496 24.479 38.4364 24.2967 38.687 24.0688C38.9491 23.8296 39.0801 23.408 39.0801 22.8042V12.6528C39.0801 12.1174 39.0117 11.7471 38.875 11.542C38.7497 11.3369 38.4478 11.1546 37.9692 10.9951L36.9268 10.7046V9.40576L45.1299 8.39746ZM41.7461 6.09033C40.8688 6.09033 40.1226 5.8112 39.5073 5.25293C38.8921 4.69466 38.5845 3.98258 38.5845 3.1167C38.5845 2.25081 38.8921 1.53874 39.5073 0.980469C40.1226 0.422201 40.8688 0.143066 41.7461 0.143066C42.6234 0.143066 43.3696 0.422201 43.9849 0.980469C44.6001 1.53874 44.9077 2.25081 44.9077 3.1167C44.9077 3.98258 44.6001 4.69466 43.9849 5.25293C43.3696 5.8112 42.6234 6.09033 41.7461 6.09033ZM56.7339 8.39746V11.5249C57.1782 10.5907 57.9245 9.81592 58.9727 9.20068C60.0208 8.58545 61.314 8.27783 62.8521 8.27783C64.6408 8.27783 66.0877 8.75635 67.1929 9.71338C68.298 10.6704 68.8506 12.0718 68.8506 13.9175V22.8042C68.8506 23.408 68.9759 23.8296 69.2266 24.0688C69.4772 24.2967 70.064 24.479 70.9868 24.6157V26H60.9893V24.6157C61.764 24.4904 62.2539 24.3252 62.459 24.1201C62.6755 23.9036 62.7837 23.5049 62.7837 22.9238V14.4302C62.7837 13.3592 62.516 12.5503 61.9805 12.0034C61.445 11.4451 60.6987 11.166 59.7417 11.166C59.0353 11.166 58.4258 11.3027 57.9131 11.5762C57.4118 11.8496 57.0415 12.1971 56.8022 12.6187V22.9238C56.8022 23.5049 56.9048 23.9036 57.1099 24.1201C57.3263 24.3252 57.8276 24.4904 58.6138 24.6157V26H48.5991V24.6157C49.522 24.479 50.1087 24.2967 50.3594 24.0688C50.6214 23.8296 50.7524 23.408 50.7524 22.8042V12.6528C50.7524 12.1174 50.6841 11.7471 50.5474 11.542C50.422 11.3369 50.1201 11.1546 49.6416 10.9951L48.5991 10.7046V9.40576L56.7339 8.39746ZM74.0972 20.6338V10.7729H72.0635V9.54248L79.019 4.44971H80.0957V8.8418L84.5903 8.65381V10.7729L80.0957 10.5679V20.2578C80.0957 21.5111 80.3407 22.394 80.8306 22.9067C81.3319 23.408 81.987 23.6587 82.7959 23.6587C83.1947 23.6587 83.5706 23.6074 83.9238 23.5049C84.277 23.4023 84.5732 23.2542 84.8125 23.0605V24.4619C84.391 24.9746 83.7074 25.4246 82.7617 25.812C81.8161 26.188 80.7736 26.376 79.6343 26.376C78.5975 26.376 77.6632 26.1823 76.8315 25.7949C75.9998 25.4076 75.3333 24.798 74.832 23.9663C74.3421 23.1232 74.0972 22.0124 74.0972 20.6338ZM94.8613 13.7466C94.8613 11.6844 95.2088 9.85579 95.9038 8.26074C96.6102 6.6543 97.5957 5.3042 98.8604 4.21045C100.125 3.10531 101.595 2.2679 103.27 1.69824C104.956 1.12858 106.784 0.84375 108.755 0.84375C110.556 0.84375 112.162 0.997559 113.575 1.30518C114.999 1.6014 116.093 2.00586 116.856 2.51855L117.01 9.1665H115.694C115.466 8.17529 115.153 7.28662 114.754 6.50049C114.355 5.70296 113.882 5.03076 113.335 4.48389C112.8 3.92562 112.185 3.49837 111.49 3.20215C110.795 2.90592 110.031 2.75781 109.2 2.75781C107.673 2.75781 106.374 3.20785 105.303 4.10791C104.244 4.99658 103.435 6.24414 102.876 7.85059C102.33 9.44564 102.056 11.3084 102.056 13.439C102.056 14.9884 102.216 16.4354 102.535 17.7798C102.854 19.1242 103.315 20.3091 103.919 21.3345C104.523 22.3485 105.252 23.1403 106.106 23.71C106.972 24.2796 107.952 24.5645 109.046 24.5645C109.729 24.5645 110.345 24.4904 110.892 24.3423C111.438 24.1942 111.877 23.9891 112.208 23.7271V17.1304C112.208 16.6405 112.145 16.2645 112.02 16.0024C111.906 15.729 111.661 15.5239 111.285 15.3872C110.92 15.2505 110.362 15.1366 109.61 15.0454V13.6611H120.308V15.0454C119.613 15.1366 119.095 15.2505 118.753 15.3872C118.411 15.5239 118.183 15.729 118.069 16.0024C117.967 16.2759 117.916 16.6576 117.916 17.1475V24.2056C116.89 24.9006 115.529 25.4531 113.831 25.8633C112.145 26.2734 110.373 26.4785 108.516 26.4785C106.545 26.4785 104.728 26.1766 103.064 25.5728C101.401 24.9689 99.9541 24.1087 98.7236 22.9922C97.5046 21.8757 96.5532 20.5369 95.8696 18.9761C95.1974 17.4152 94.8613 15.672 94.8613 13.7466ZM126.563 26.376C125.014 26.376 123.766 25.9772 122.82 25.1797C121.886 24.3822 121.419 23.3568 121.419 22.1035C121.419 21.2148 121.658 20.4173 122.137 19.7109C122.615 19.0046 123.39 18.3836 124.461 17.8481C125.532 17.3127 126.962 16.8683 128.75 16.5151L134.083 15.4043V16.9595L131.041 17.626C130.14 17.8311 129.417 18.0988 128.87 18.4292C128.335 18.7482 127.942 19.1356 127.691 19.5913C127.452 20.0356 127.332 20.554 127.332 21.1465C127.332 21.9896 127.56 22.6333 128.016 23.0776C128.483 23.522 129.064 23.7441 129.759 23.7441C130.351 23.7441 130.87 23.6188 131.314 23.3682C131.77 23.1175 132.111 22.7814 132.339 22.3599V14.3447C132.339 12.8522 131.986 11.7983 131.28 11.1831C130.585 10.5565 129.605 10.2432 128.34 10.2432C127.566 10.2432 126.848 10.3571 126.187 10.585C125.538 10.8128 124.996 11.1318 124.563 11.542C124.131 11.9521 123.857 12.425 123.743 12.9604H122.718C122.729 12.1971 122.963 11.542 123.418 10.9951C123.874 10.4482 124.421 10.1748 125.059 10.1748C125.754 10.1748 126.347 10.4198 126.836 10.9097C127.326 11.3882 127.571 11.9806 127.571 12.687C127.571 13.4048 127.309 14.0143 126.785 14.5156C126.261 15.0055 125.612 15.2505 124.837 15.2505C124.051 15.2505 123.401 15.0226 122.889 14.5669C122.376 14.0998 122.12 13.5016 122.12 12.7725C122.12 11.9408 122.45 11.1888 123.111 10.5166C123.772 9.83301 124.712 9.29183 125.931 8.89307C127.15 8.48291 128.585 8.27783 130.237 8.27783C132.767 8.27783 134.738 8.76774 136.15 9.74756C137.563 10.7274 138.27 12.2769 138.27 14.396V22.1377C138.27 22.8327 138.429 23.334 138.748 23.6416C139.078 23.9492 139.472 24.103 139.927 24.103C140.223 24.103 140.474 24.0688 140.679 24.0005V25.3164C140.292 25.5898 139.773 25.8177 139.124 26C138.486 26.1937 137.768 26.2905 136.971 26.2905C136.264 26.2905 135.598 26.1823 134.971 25.9658C134.345 25.738 133.809 25.4189 133.365 25.0088C132.932 24.5872 132.647 24.0688 132.51 23.4536C132.237 24.0233 131.815 24.5303 131.246 24.9746C130.676 25.4189 129.992 25.7607 129.195 26C128.397 26.2507 127.52 26.376 126.563 26.376ZM149.686 8.39746V11.9009L149.754 11.918V22.9238C149.754 23.5049 149.856 23.9036 150.062 24.1201C150.278 24.3252 150.779 24.4904 151.565 24.6157V26H141.551V24.6157C142.474 24.479 143.06 24.2967 143.311 24.0688C143.573 23.8296 143.704 23.408 143.704 22.8042V12.6528C143.704 12.1174 143.636 11.7471 143.499 11.542C143.374 11.3369 143.072 11.1546 142.593 10.9951L141.551 10.7046V9.40576L149.686 8.39746ZM155.735 8.27783C157.479 8.27783 158.863 8.73356 159.888 9.64502C160.925 10.5451 161.443 11.8952 161.443 13.6953V22.9238C161.443 23.5049 161.546 23.9036 161.751 24.1201C161.967 24.3252 162.463 24.4904 163.238 24.6157V26H153.582V24.6157C154.357 24.4904 154.847 24.3252 155.052 24.1201C155.268 23.9036 155.376 23.5049 155.376 22.9238V14.4644C155.376 13.3706 155.12 12.5503 154.607 12.0034C154.106 11.4451 153.417 11.166 152.54 11.166C151.845 11.166 151.241 11.3198 150.728 11.6274C150.227 11.9237 149.839 12.3566 149.566 12.9263V11.7471C150.022 10.6989 150.791 9.86149 151.873 9.23486C152.955 8.59684 154.243 8.27783 155.735 8.27783ZM167.237 8.27783C169.014 8.27783 170.438 8.76204 171.509 9.73047C172.58 10.6875 173.116 12.0946 173.116 13.9517V22.8042C173.116 23.408 173.247 23.8296 173.509 24.0688C173.771 24.2967 174.358 24.479 175.269 24.6157V26H165.271V24.6157C166.046 24.4904 166.536 24.3252 166.741 24.1201C166.958 23.9036 167.066 23.5049 167.066 22.9238V14.4644C167.066 13.3706 166.804 12.5503 166.28 12.0034C165.767 11.4451 165.066 11.166 164.178 11.166C163.437 11.166 162.799 11.3198 162.264 11.6274C161.74 11.9237 161.347 12.3737 161.084 12.9775V11.7642C161.54 10.6818 162.304 9.83301 163.375 9.21777C164.457 8.59115 165.744 8.27783 167.237 8.27783ZM186.634 26.376C184.731 26.376 183.039 26.0057 181.558 25.2651C180.088 24.5246 178.932 23.4821 178.089 22.1377C177.246 20.7933 176.824 19.221 176.824 17.4209C176.824 15.6094 177.251 14.02 178.106 12.6528C178.972 11.2743 180.157 10.2033 181.661 9.43994C183.165 8.6652 184.874 8.27783 186.788 8.27783C188.702 8.27783 190.394 8.64811 191.863 9.38867C193.344 10.1292 194.507 11.1717 195.35 12.5161C196.193 13.8605 196.614 15.4328 196.614 17.2329C196.614 19.033 196.181 20.6224 195.315 22.001C194.461 23.3682 193.282 24.4391 191.778 25.2139C190.274 25.9886 188.559 26.376 186.634 26.376ZM186.822 24.5474C187.574 24.5474 188.206 24.2682 188.719 23.71C189.231 23.1517 189.619 22.3485 189.881 21.3003C190.143 20.2407 190.274 18.9704 190.274 17.4893C190.274 15.9398 190.12 14.6182 189.812 13.5244C189.516 12.4193 189.095 11.5762 188.548 10.9951C188.001 10.4027 187.357 10.1064 186.617 10.1064C185.865 10.1064 185.232 10.3856 184.72 10.9438C184.207 11.5021 183.82 12.311 183.558 13.3706C183.296 14.4188 183.165 15.6834 183.165 17.1646C183.165 18.7026 183.313 20.0243 183.609 21.1294C183.917 22.2345 184.344 23.0833 184.891 23.6758C185.438 24.2568 186.081 24.5474 186.822 24.5474ZM206.697 0.313965V22.8042C206.697 23.408 206.823 23.8296 207.073 24.0688C207.335 24.2967 207.928 24.479 208.851 24.6157V26H198.494V24.6157C199.417 24.479 200.004 24.2967 200.254 24.0688C200.516 23.8296 200.647 23.408 200.647 22.8042V4.58643C200.647 4.02816 200.579 3.65218 200.442 3.4585C200.317 3.25342 200.015 3.07113 199.537 2.91162L198.494 2.62109V1.32227L206.697 0.313965ZM220.403 26.376C218.501 26.376 216.809 26.0057 215.328 25.2651C213.858 24.5246 212.701 23.4821 211.858 22.1377C211.015 20.7933 210.594 19.221 210.594 17.4209C210.594 15.6094 211.021 14.02 211.875 12.6528C212.741 11.2743 213.926 10.2033 215.43 9.43994C216.934 8.6652 218.643 8.27783 220.557 8.27783C222.471 8.27783 224.163 8.64811 225.633 9.38867C227.114 10.1292 228.276 11.1717 229.119 12.5161C229.962 13.8605 230.384 15.4328 230.384 17.2329C230.384 19.033 229.951 20.6224 229.085 22.001C228.23 23.3682 227.051 24.4391 225.547 25.2139C224.043 25.9886 222.329 26.376 220.403 26.376ZM220.591 24.5474C221.343 24.5474 221.976 24.2682 222.488 23.71C223.001 23.1517 223.388 22.3485 223.65 21.3003C223.912 20.2407 224.043 18.9704 224.043 17.4893C224.043 15.9398 223.89 14.6182 223.582 13.5244C223.286 12.4193 222.864 11.5762 222.317 10.9951C221.771 10.4027 221.127 10.1064 220.386 10.1064C219.634 10.1064 219.002 10.3856 218.489 10.9438C217.977 11.5021 217.589 12.311 217.327 13.3706C217.065 14.4188 216.934 15.6834 216.934 17.1646C216.934 18.7026 217.082 20.0243 217.378 21.1294C217.686 22.2345 218.113 23.0833 218.66 23.6758C219.207 24.2568 219.851 24.5474 220.591 24.5474Z" fill="white"/>
</svg>
